<?xml version="1.0" encoding="UTF-8"?>
<svg width="16px" height="20px" viewBox="0 0 16 20" version="1.1" xmlns="http://www.w3.org/2000/svg" xmlns:xlink="http://www.w3.org/1999/xlink">
    <title>icon-resume</title>
    <g id="Page-1" stroke="none" stroke-width="1" fill="none" fill-rule="evenodd">
        <g id="Extra-Large" transform="translate(-1246.000000, -251.000000)" fill="#FFFFFF" fill-rule="nonzero">
            <g id="pdf-svgrepo-com" transform="translate(1246.000000, 251.000000)">
                <path d="M11.1537173,8.48857613 C11.2160918,8.3644137 11.2403717,8.28480716 11.25,8.24203349 C11.1985097,8.20341838 11.1302746,8.125 10.7581212,8.125 C10.546718,8.125 10.2813128,8.13806973 10,8.18916049 C10.3411755,8.56164781 10.4244809,8.74997074 10.6476055,8.74997074 C10.745144,8.75056482 11.0247823,8.74462403 11.1537173,8.48857613 Z" id="Path"></path>
                <path d="M4.55166014,11.25 C4.61223879,11.2329016 4.96595306,11.088475 5.625,10 C4.75575734,10.4369179 4.40204306,10.7959837 4.37683584,10.9982538 C4.37236359,11.0317229 4.36138625,11.1197614 4.55166014,11.25 Z" id="Path"></path>
                <path d="M15.625,13.75 L15.625,4.92814103 C15.625,4.65807692 15.5930556,4.45817308 15.4340278,4.29634615 L11.3934028,0.193910256 C11.2722222,0.0708653846 11.1041667,0 10.9322917,0 L0.855208333,0 C0.443402778,0 0,0.322948718 0,1.03160256 L0,13.75 L15.625,13.75 Z M10.7638889,1.19554487 C10.7638889,1.03407051 10.9559028,0.953333333 11.0684028,1.0675641 L14.5736111,4.62669872 C14.6861111,4.74092949 14.6065972,4.93589744 14.4475694,4.93589744 L10.7638889,4.93589744 L10.7638889,1.19554487 Z M4.14305556,11.1956731 C4.20625,10.6216987 4.90520833,10.0209295 6.22118056,9.40887821 C6.74340278,8.24682692 7.24027778,6.8150641 7.53645833,5.6188141 C7.18993056,4.85304487 6.853125,3.85951923 7.09861111,3.27673077 C7.18472222,3.07259615 7.29201389,2.91605769 7.49236111,2.84836538 C7.57152778,2.82157051 7.77152778,2.78772436 7.84513889,2.78772436 C8.02013889,2.78772436 8.17395833,3.01653846 8.28298611,3.1575641 C8.38541667,3.29012821 8.61770833,3.57112179 8.15347222,5.55570513 C8.62152778,6.53724359 9.28472222,7.53711538 9.92013889,8.22179487 C10.3753472,8.13823718 10.7670139,8.09557692 11.0861111,8.09557692 C11.6298611,8.09557692 11.959375,8.22426282 12.09375,8.48939103 C12.2048611,8.7086859 12.159375,8.965 11.9583333,9.25092949 C11.7649306,9.52557692 11.4982639,9.67083333 11.1875,9.67083333 C10.7652778,9.67083333 10.2736111,9.4000641 9.72534722,8.86522436 C8.74027778,9.07429487 7.58958333,9.44730769 6.66006944,9.86016026 C6.36979167,10.485609 6.09166667,10.9894231 5.83263889,11.3589103 C5.47743056,11.8658974 5.17048611,12.1017628 4.86666667,12.1017628 L4.86666667,12.1017628 C4.74583333,12.1017628 4.62986111,12.0619231 4.53090278,11.9868269 C4.16875,11.7107692 4.12013889,11.404391 4.14305556,11.1956731 Z" id="Shape"></path>
                <path d="M4.86342229,15.8410571 C4.80769231,15.7796844 4.7299843,15.7283317 4.62990581,15.686999 C4.52982732,15.6456663 4.39717425,15.625 4.23273155,15.625 L3.75,15.625 L3.75,16.875 L4.34026688,16.875 C4.41875981,16.875 4.49646782,16.8643537 4.57378336,16.842748 C4.65070644,16.8214554 4.72135008,16.7863853 4.78571429,16.7378507 C4.85007849,16.6893161 4.90188383,16.6216809 4.9411303,16.5346318 C4.98037677,16.4475827 5,16.3398672 5,16.2114855 C5,16.1601328 4.99097331,16.1006388 4.9733124,16.0339429 C4.95525903,15.9669339 4.91875981,15.902743 4.86342229,15.8410571 Z" id="Path"></path>
                <path d="M7.90409483,6.25 C7.62854064,7.06768905 7.265625,7.95048916 6.875,8.75 C7.67934113,8.48195399 8.55372537,8.24795082 9.375,8.08236383 C8.85544951,7.56411951 8.33628387,6.91697515 7.90409483,6.25 Z" id="Path"></path>
                <path d="M0,14.375 L0,19.3382353 C0,19.6720956 0.423611111,20 0.855208333,20 L14.7697917,20 C15.2013889,20 15.625,19.6720956 15.625,19.3382353 L15.625,14.375 L0,14.375 Z M5.69305556,16.833125 C5.63298611,16.9704412 5.54895833,17.0859191 5.44131944,17.1792279 C5.33368056,17.2725368 5.20381944,17.345 5.05208333,17.3962868 C4.90034722,17.4475735 4.73229167,17.4730515 4.54895833,17.4730515 L4.12638889,17.4730515 L4.12638889,18.6764706 L3.55659722,18.6764706 L3.55659722,15.3425 L4.56284722,15.3425 C4.71145833,15.3425 4.85868056,15.365 5.00416667,15.4103309 C5.14965278,15.4556618 5.28020833,15.5234926 5.39583333,15.6138235 C5.51145833,15.7041544 5.60486111,15.8136765 5.67604167,15.9417279 C5.74722222,16.0697794 5.78298907,16.2137132 5.78298907,16.3738603 C5.78333333,16.5429412 5.753125,16.6958088 5.69305556,16.833125 Z M9.18472222,17.6202941 C9.12291667,17.8148529 9.04479167,17.9776471 8.94965278,18.1090074 C8.85451389,18.2403676 8.74791667,18.3436029 8.62916667,18.4190441 C8.51041667,18.4944853 8.39583333,18.5507353 8.28506944,18.5887868 C8.17430556,18.6265074 8.07291667,18.6506618 7.98125,18.66125 C7.88958333,18.6711765 7.82152778,18.6764706 7.77708333,18.6764706 L6.45277778,18.6764706 L6.45277778,15.3425 L7.50659722,15.3425 C7.80104167,15.3425 8.05972222,15.3871691 8.28263889,15.4758456 C8.50555556,15.5645221 8.69097222,15.6833088 8.83819444,15.8308824 C8.98541667,15.9784559 9.09513889,16.146875 9.16805556,16.3351471 C9.240625,16.5234191 9.27708623,16.7173162 9.27708623,16.9165074 C9.27743056,17.1911397 9.24652778,17.4257353 9.18472222,17.6202941 Z M12.2916667,15.7541176 L10.6822917,15.7541176 L10.6822917,16.8036765 L12.1444444,16.8036765 L12.1444444,17.1745956 L10.6822917,17.1745956 L10.6822917,18.6764706 L10.103125,18.6764706 L10.103125,15.3425 L12.2916667,15.3425 L12.2916667,15.7541176 Z" id="Shape"></path>
                <path d="M8.46271746,15.9903821 C8.34992664,15.881259 8.19665689,15.7931085 8.00330119,15.7259307 C7.8099455,15.6587528 7.55921191,15.625 7.2511004,15.625 L6.875,15.625 L6.875,18.125 L7.51440998,18.125 C7.95142528,18.125 8.26661077,18.0086676 8.45996646,17.7756751 C8.65332215,17.5426825 8.75,17.2051547 8.75,16.7630915 C8.75,16.6257865 8.73035003,16.4897922 8.69105009,16.3554365 C8.65135716,16.2210807 8.57550828,16.0995052 8.46271746,15.9903821 Z" id="Path"></path>
                <path d="M7.83671983,3.12505062 C7.78055946,3.13787659 7.07454339,3.80793652 7.89173407,4.375 C8.43557275,3.55297172 7.86136162,3.1196093 7.83671983,3.12505062 Z" id="Path"></path>
            </g>
        </g>
    </g>
</svg>