<?xml version="1.0" encoding="UTF-8"?>
<svg width="20px" height="20px" viewBox="0 0 20 20" version="1.1" xmlns="http://www.w3.org/2000/svg" xmlns:xlink="http://www.w3.org/1999/xlink">
    <title>icon-linkedin</title>
    <g id="Page-1" stroke="none" stroke-width="1" fill="none" fill-rule="evenodd">
        <g id="Extra-Large" transform="translate(-1244.000000, -328.000000)" fill="#FFFFFF" fill-rule="nonzero">
            <g id="linkedin-svgrepo-com-(1)" transform="translate(1244.000000, 328.000000)">
                <path d="M4.69716058,6.25 L0.927839422,6.25 C0.760550925,6.25 0.625,6.39665147 0.625,6.57749324 L0.625,19.6725068 C0.625,19.853414 0.760550925,20 0.927839422,20 L4.69716058,20 C4.86444907,20 5,19.853414 5,19.6725068 L5,6.57749324 C5,6.39665147 4.86444907,6.25 4.69716058,6.25 Z" id="XMLID_802_"></path>
                <path d="M2.50100488,0 C1.12193815,0 0,1.12126641 0,2.49948208 C0,3.87830707 1.12193815,5 2.50100488,5 C3.87897538,5 5,3.87824614 5,2.49948208 C5.0000609,1.12126641 3.87897538,0 2.50100488,0 Z" id="XMLID_803_"></path>
                <path d="M14.8777315,6.25 C13.2682087,6.25 12.0784047,6.9375064 11.3567434,7.71868514 L11.3567434,6.88785494 C11.3567434,6.71119554 11.2126301,6.56793572 11.0347745,6.56793572 L7.19696895,6.56793572 C7.0191133,6.56793572 6.875,6.71119554 6.875,6.88785494 L6.875,19.6800168 C6.875,19.8567402 7.0191133,20 7.19696895,20 L11.1956302,20 C11.3734858,20 11.5175991,19.8567402 11.5175991,19.6800168 L11.5175991,13.350863 C11.5175991,11.2180895 12.1006205,10.3871953 13.5968746,10.3871953 C15.2264239,10.3871953 15.3559198,11.719211 15.3559198,13.4605953 L15.3559198,19.6800808 C15.3559198,19.8568042 15.5000331,20 15.6778888,20 L19.678031,20 C19.8558867,20 20,19.8568042 20,19.6800808 L20,12.6633566 C20,9.49199737 19.3914143,6.25 14.8777315,6.25 Z" id="XMLID_804_"></path>
            </g>
        </g>
    </g>
</svg>